<svg id="Layer_1" data-name="Layer 1" xmlns="http://www.w3.org/2000/svg" xmlns:xlink="http://www.w3.org/1999/xlink" viewBox="0 0 1352.09 1352.76"><defs><style>.cls-1{fill:url(#linear-gradient);}</style><linearGradient id="linear-gradient" x1="1323.95" y1="1500" x2="2676.05" y2="1500" gradientUnits="userSpaceOnUse"><stop offset="0" stop-color="#6a329d"/><stop offset="0.15" stop-color="#71339d"/><stop offset="0.37" stop-color="#84359c"/><stop offset="0.62" stop-color="#a3399c"/><stop offset="0.91" stop-color="#ce3e9a"/><stop offset="1" stop-color="#dd409a"/></linearGradient></defs><path class="cls-1" d="M1885.15,1845.64c-83.85-29.38-145-77.67-190-146.2-54.57-83-69.95-174.13-52.62-271.46q47.1-264.43,93.83-528.91c1.37-7.73,3.25-15.37,4.69-22.1,245.09-110,609.41-59.11,815.32,239.48,197.12,285.84,145.59,674.07-116.11,897.13-262.4,223.65-655,215.32-900.19-15.45-269.56-253.67-264.73-634.34-107.15-863.36-1.26,14.86-1.32,24.11-2.91,33.09-12.7,71.5-25.76,142.93-38.56,214.41-55.53,310,117.52,607.62,409.82,704.61,12.07,4,24.48,7,40.65,11.54,15-83.38,29.56-164.13,44.69-248.1,147.19,37.22,276.47,8.11,380.89-102.43,73.47-77.78,104.05-172.82,95.78-279.64-14.07-181.74-197.33-353.58-353.23-328.32C1968.85,1372.6,1927.5,1606.31,1885.15,1845.64Z" transform="translate(-1323.95 -823.62)"/></svg>