<svg id="Layer_1" data-name="Layer 1" xmlns="http://www.w3.org/2000/svg" xmlns:xlink="http://www.w3.org/1999/xlink" viewBox="0 0 1147.06 1147.62"><defs><style>.cls-1{fill:none;}.cls-2{clip-path:url(#clip-path);}.cls-3{fill:url(#linear-gradient);}</style><clipPath id="clip-path" transform="translate(-102.56 -102.58)"><rect class="cls-1" width="1352.09" height="1352.09"/></clipPath><linearGradient id="linear-gradient" x1="1426.51" y1="-148.37" x2="2573.57" y2="-148.37" gradientTransform="matrix(1, 0, 0, -1, -1323.95, 528.02)" gradientUnits="userSpaceOnUse"><stop offset="0" stop-color="#6a329d"/><stop offset="0.15" stop-color="#71339d"/><stop offset="0.37" stop-color="#84359c"/><stop offset="0.62" stop-color="#a3399c"/><stop offset="0.91" stop-color="#ce3e9a"/><stop offset="1" stop-color="#dd409a"/></linearGradient></defs><g class="cls-2"><path class="cls-3" d="M578.62,969.61c-71.13-24.93-123-65.9-161.19-124-46.29-70.42-59.34-147.73-44.64-230.3q40-224.32,79.61-448.7c1.16-6.56,2.75-13,4-18.75C664.3,54.51,973.37,97.68,1148.06,351c167.22,242.5,123.51,571.85-98.51,761.09C826.94,1301.81,493.88,1294.75,285.87,1099,57.19,883.77,61.29,560.83,195,366.54c-1.07,12.6-1.12,20.45-2.47,28.07-10.77,60.66-21.85,121.25-32.71,181.89-47.11,263,99.7,515.48,347.67,597.76,10.24,3.4,20.77,5.94,34.49,9.79,12.72-70.73,25.08-139.24,37.91-210.47,124.87,31.57,234.55,6.88,323.13-86.9,62.33-66,88.27-146.61,81.26-237.23-11.94-154.18-167.41-300-299.67-278.54C649.63,568.3,614.55,766.57,578.62,969.61Z" transform="translate(-102.56 -102.58)"/></g></svg>